<svg xmlns="http://www.w3.org/2000/svg" width="27" height="23" viewBox="0 0 27 23">
    <g fill="#FF007F" fill-rule="nonzero">
        <path d="M12.769 18.66l5.427 3.282c.993.602 2.21-.287 1.948-1.412l-1.438-6.172 4.799-4.158c.876-.759.405-2.197-.746-2.289l-6.316-.536-2.471-5.832c-.445-1.06-1.962-1.06-2.406 0l-2.472 5.82-6.316.535c-1.15.092-1.621 1.53-.745 2.289l4.8 4.158-1.44 6.172c-.26 1.125.955 2.014 1.95 1.412l5.426-3.269zM21.105.127a.697.697 0 0 0-.957.148l-.727.973a.655.655 0 0 0 .152.931.695.695 0 0 0 .956-.147l.727-.974a.655.655 0 0 0-.151-.93zM6.788 1.248L6.062.275a.697.697 0 0 0-.957-.148.655.655 0 0 0-.152.931l.727.974a.694.694 0 0 0 .957.147.655.655 0 0 0 .151-.93zM2.483 14.711a.682.682 0 0 0-.853-.42l-1.162.365a.651.651 0 0 0-.435.826.675.675 0 0 0 .644.453c.07 0 .14-.01.21-.032l1.161-.366a.651.651 0 0 0 .435-.826zM25.742 14.656l-1.162-.366a.682.682 0 0 0-.853.421.651.651 0 0 0 .434.826l1.163.366c.07.022.14.032.209.032.285 0 .55-.176.643-.453a.651.651 0 0 0-.434-.826z"/>
    </g>
</svg>
