<svg xmlns="http://www.w3.org/2000/svg" width="40" height="40" viewBox="0 0 40 40">
    <g fill="none" fill-rule="evenodd">
        <circle cx="20" cy="20" r="20" fill="#3E5C9B" fill-rule="nonzero"/>
        <path fill="#FFF" d="M16.883 26.036c0-1.871-.007-3.743.007-5.614 0-.32-.087-.415-.4-.4-.583.023-1.168 0-1.752.01-.24.006-.32-.06-.32-.31.012-1.168.012-2.336 0-3.504 0-.224.066-.298.293-.293.597.013 1.195-.017 1.791.013.346.016.418-.106.41-.427-.02-.889-.02-1.778 0-2.668.025-1.085.316-2.099.96-2.981.82-1.12 1.982-1.63 3.325-1.69 1.378-.06 2.76-.026 4.14-.042.193 0 .25.068.25.255-.007 1.18-.007 2.362 0 3.543 0 .21-.068.274-.273.271-.664-.01-1.328-.005-1.992 0-.884 0-1.412.457-1.468 1.332-.044.701-.012 1.407-.028 2.11-.006.25.143.233.31.233 1.007 0 2.017.01 3.026-.008.296-.005.393.064.359.375-.127 1.173-.236 2.35-.336 3.526-.023.266-.144.316-.383.312-.8-.012-1.592-.009-2.388 0-.572 0-.517-.08-.517.5 0 3.663-.007 7.327.008 10.99 0 .387-.097.48-.48.48a109.535 109.535 0 0 0-4.102 0c-.385.008-.448-.123-.445-.467.013-1.856.005-3.7.005-5.546z"/>
    </g>
</svg>
