<svg xmlns="http://www.w3.org/2000/svg" width="40" height="40" viewBox="0 0 40 40">
    <g fill="none" fill-rule="nonzero">
        <circle cx="20" cy="20" r="20" fill="#1DA1F2"/>
        <path fill="#FFF" d="M15.64 29.55c8.869 0 13.719-7.345 13.719-13.719 0-.208-.004-.416-.014-.625a9.809 9.809 0 0 0 2.405-2.496 9.65 9.65 0 0 1-2.766.761 4.844 4.844 0 0 0 2.12-2.667 9.665 9.665 0 0 1-3.061 1.172 4.826 4.826 0 0 0-8.216 4.397 13.688 13.688 0 0 1-9.938-5.038 4.825 4.825 0 0 0 1.492 6.437 4.783 4.783 0 0 1-2.183-.603v.061a4.823 4.823 0 0 0 3.864 4.723 4.82 4.82 0 0 1-2.178.083 4.827 4.827 0 0 0 4.507 3.355 9.677 9.677 0 0 1-5.989 2.064c-.384 0-.768-.023-1.15-.067a13.65 13.65 0 0 0 7.391 2.165"/>
    </g>
</svg>
